<svg width="78" height="14" viewBox="0 0 78 14" fill="none" xmlns="http://www.w3.org/2000/svg">
<path d="M0.232955 11V0.818182H1.46591V5.35227H6.89489V0.818182H8.12784V11H6.89489V6.44602H1.46591V11H0.232955ZM13.6388 11.1591C12.9031 11.1591 12.2683 10.9967 11.7347 10.6719C11.2044 10.3438 10.7951 9.88636 10.5067 9.29972C10.2217 8.70975 10.0792 8.02367 10.0792 7.24148C10.0792 6.45928 10.2217 5.76989 10.5067 5.1733C10.7951 4.57339 11.1961 4.10606 11.7099 3.77131C12.2269 3.43324 12.8301 3.2642 13.5195 3.2642C13.9173 3.2642 14.31 3.33049 14.6978 3.46307C15.0856 3.59564 15.4386 3.81108 15.7567 4.10938C16.0749 4.40436 16.3285 4.79545 16.5174 5.28267C16.7063 5.76989 16.8008 6.36979 16.8008 7.08239V7.57955H10.9144V6.56534H15.6076C15.6076 6.13447 15.5214 5.75 15.3491 5.41193C15.18 5.07386 14.9381 4.80705 14.6232 4.61151C14.3117 4.41596 13.9438 4.31818 13.5195 4.31818C13.0522 4.31818 12.6478 4.43419 12.3065 4.66619C11.9684 4.89489 11.7082 5.19318 11.5259 5.56108C11.3436 5.92898 11.2525 6.32339 11.2525 6.74432V7.42045C11.2525 7.99716 11.3519 8.48603 11.5508 8.88707C11.753 9.2848 12.033 9.58807 12.391 9.79688C12.7489 10.0024 13.1649 10.1051 13.6388 10.1051C13.9471 10.1051 14.2255 10.062 14.4741 9.97585C14.726 9.88636 14.9431 9.75379 15.1254 9.57812C15.3076 9.39915 15.4485 9.17708 15.5479 8.91193L16.6815 9.23011C16.5621 9.61458 16.3616 9.95265 16.0799 10.2443C15.7982 10.5327 15.4502 10.758 15.0359 10.9205C14.6216 11.0795 14.1559 11.1591 13.6388 11.1591ZM19.7589 0.818182V11H18.5856V0.818182H19.7589ZM21.9078 13.8636V3.36364H23.0414V4.5767H23.1806C23.2667 4.44413 23.3861 4.27509 23.5385 4.0696C23.6943 3.8608 23.9164 3.67519 24.2047 3.51278C24.4964 3.34706 24.8908 3.2642 25.388 3.2642C26.031 3.2642 26.5977 3.42495 27.0882 3.74645C27.5788 4.06794 27.9616 4.52367 28.2367 5.11364C28.5118 5.7036 28.6493 6.39962 28.6493 7.2017C28.6493 8.01042 28.5118 8.71141 28.2367 9.30469C27.9616 9.89465 27.5804 10.352 27.0932 10.6768C26.606 10.9983 26.0442 11.1591 25.4078 11.1591C24.9173 11.1591 24.5246 11.0779 24.2296 10.9155C23.9346 10.7498 23.7076 10.5625 23.5485 10.3537C23.3894 10.1416 23.2667 9.96591 23.1806 9.8267H23.0811V13.8636H21.9078ZM23.0613 7.18182C23.0613 7.75852 23.1458 8.26728 23.3148 8.7081C23.4838 9.1456 23.7308 9.48864 24.0556 9.73722C24.3804 9.98248 24.7781 10.1051 25.2488 10.1051C25.7393 10.1051 26.1486 9.97585 26.4767 9.71733C26.8082 9.45549 27.0568 9.10417 27.2225 8.66335C27.3915 8.21922 27.476 7.72538 27.476 7.18182C27.476 6.64489 27.3932 6.16098 27.2275 5.73011C27.065 5.29593 26.8181 4.95289 26.4867 4.70099C26.1586 4.44579 25.7459 4.31818 25.2488 4.31818C24.7715 4.31818 24.3704 4.43916 24.0456 4.68111C23.7208 4.91974 23.4756 5.2545 23.3098 5.68537C23.1441 6.11293 23.0613 6.61174 23.0613 7.18182ZM42.7289 4H41.4959C41.423 3.64536 41.2954 3.33381 41.1131 3.06534C40.9341 2.79688 40.7154 2.5715 40.4569 2.3892C40.2016 2.2036 39.9183 2.06439 39.6067 1.97159C39.2952 1.87879 38.9703 1.83239 38.6323 1.83239C38.0158 1.83239 37.4573 1.98816 36.9569 2.29972C36.4597 2.61127 36.0636 3.07031 35.7686 3.67685C35.477 4.28338 35.3311 5.02746 35.3311 5.90909C35.3311 6.79072 35.477 7.5348 35.7686 8.14134C36.0636 8.74787 36.4597 9.20691 36.9569 9.51847C37.4573 9.83002 38.0158 9.9858 38.6323 9.9858C38.9703 9.9858 39.2952 9.93939 39.6067 9.84659C39.9183 9.75379 40.2016 9.61624 40.4569 9.43395C40.7154 9.24834 40.9341 9.02131 41.1131 8.75284C41.2954 8.48106 41.423 8.16951 41.4959 7.81818H42.7289C42.6361 8.33854 42.467 8.80421 42.2218 9.2152C41.9765 9.62618 41.6716 9.97585 41.307 10.2642C40.9424 10.5492 40.5331 10.7663 40.079 10.9155C39.6283 11.0646 39.146 11.1392 38.6323 11.1392C37.7639 11.1392 36.9917 10.9271 36.3155 10.5028C35.6394 10.0786 35.1074 9.47538 34.7196 8.69318C34.3319 7.91098 34.138 6.98295 34.138 5.90909C34.138 4.83523 34.3319 3.9072 34.7196 3.125C35.1074 2.3428 35.6394 1.73958 36.3155 1.31534C36.9917 0.891098 37.7639 0.678977 38.6323 0.678977C39.146 0.678977 39.6283 0.753551 40.079 0.902699C40.5331 1.05185 40.9424 1.2706 41.307 1.55895C41.6716 1.84399 41.9765 2.192 42.2218 2.60298C42.467 3.01065 42.6361 3.47633 42.7289 4ZM47.7638 11.1591C47.0281 11.1591 46.3933 10.9967 45.8597 10.6719C45.3294 10.3438 44.9201 9.88636 44.6317 9.29972C44.3467 8.70975 44.2042 8.02367 44.2042 7.24148C44.2042 6.45928 44.3467 5.76989 44.6317 5.1733C44.9201 4.57339 45.3211 4.10606 45.8349 3.77131C46.3519 3.43324 46.9551 3.2642 47.6445 3.2642C48.0423 3.2642 48.435 3.33049 48.8228 3.46307C49.2106 3.59564 49.5636 3.81108 49.8817 4.10938C50.1999 4.40436 50.4535 4.79545 50.6424 5.28267C50.8313 5.76989 50.9258 6.36979 50.9258 7.08239V7.57955H45.0394V6.56534H49.7326C49.7326 6.13447 49.6464 5.75 49.4741 5.41193C49.305 5.07386 49.0631 4.80705 48.7482 4.61151C48.4367 4.41596 48.0688 4.31818 47.6445 4.31818C47.1772 4.31818 46.7728 4.43419 46.4315 4.66619C46.0934 4.89489 45.8332 5.19318 45.6509 5.56108C45.4686 5.92898 45.3775 6.32339 45.3775 6.74432V7.42045C45.3775 7.99716 45.4769 8.48603 45.6758 8.88707C45.878 9.2848 46.158 9.58807 46.516 9.79688C46.8739 10.0024 47.2899 10.1051 47.7638 10.1051C48.0721 10.1051 48.3505 10.062 48.5991 9.97585C48.851 9.88636 49.0681 9.75379 49.2504 9.57812C49.4326 9.39915 49.5735 9.17708 49.6729 8.91193L50.8065 9.23011C50.6871 9.61458 50.4866 9.95265 50.2049 10.2443C49.9232 10.5327 49.5752 10.758 49.1609 10.9205C48.7466 11.0795 48.2809 11.1591 47.7638 11.1591ZM53.8839 6.40625V11H52.7106V3.36364H53.8441V4.55682H53.9435C54.1225 4.16903 54.3943 3.85748 54.7589 3.62216C55.1235 3.38352 55.5941 3.2642 56.1708 3.2642C56.6879 3.2642 57.1403 3.37027 57.5281 3.58239C57.9158 3.79119 58.2174 4.10938 58.4329 4.53693C58.6483 4.96117 58.756 5.49811 58.756 6.14773V11H57.5827V6.22727C57.5827 5.62737 57.427 5.16004 57.1154 4.82528C56.8039 4.48722 56.3763 4.31818 55.8327 4.31818C55.4582 4.31818 55.1235 4.39938 54.8285 4.56179C54.5368 4.72419 54.3065 4.96117 54.1374 5.27273C53.9684 5.58428 53.8839 5.96212 53.8839 6.40625ZM64.2211 3.36364V4.35795H60.2637V3.36364H64.2211ZM61.4171 1.53409H62.5904V8.8125C62.5904 9.14394 62.6384 9.39252 62.7346 9.55824C62.834 9.72064 62.9599 9.83002 63.1124 9.88636C63.2682 9.93939 63.4322 9.96591 63.6046 9.96591C63.7338 9.96591 63.8399 9.95928 63.9228 9.94602C64.0056 9.92945 64.0719 9.91619 64.1216 9.90625L64.3603 10.9602C64.2807 10.9901 64.1697 11.0199 64.0272 11.0497C63.8846 11.0829 63.704 11.0994 63.4853 11.0994C63.1538 11.0994 62.829 11.0282 62.5108 10.8857C62.196 10.7431 61.9341 10.526 61.7253 10.2344C61.5198 9.94271 61.4171 9.57481 61.4171 9.13068V1.53409ZM69.1056 11.1591C68.3699 11.1591 67.7351 10.9967 67.2015 10.6719C66.6712 10.3438 66.2619 9.88636 65.9735 9.29972C65.6885 8.70975 65.546 8.02367 65.546 7.24148C65.546 6.45928 65.6885 5.76989 65.9735 5.1733C66.2619 4.57339 66.6629 4.10606 67.1767 3.77131C67.6937 3.43324 68.2969 3.2642 68.9863 3.2642C69.3841 3.2642 69.7768 3.33049 70.1646 3.46307C70.5524 3.59564 70.9054 3.81108 71.2235 4.10938C71.5417 4.40436 71.7953 4.79545 71.9842 5.28267C72.1731 5.76989 72.2676 6.36979 72.2676 7.08239V7.57955H66.3812V6.56534H71.0744C71.0744 6.13447 70.9882 5.75 70.8159 5.41193C70.6468 5.07386 70.4049 4.80705 70.09 4.61151C69.7785 4.41596 69.4106 4.31818 68.9863 4.31818C68.519 4.31818 68.1146 4.43419 67.7733 4.66619C67.4352 4.89489 67.175 5.19318 66.9927 5.56108C66.8104 5.92898 66.7193 6.32339 66.7193 6.74432V7.42045C66.7193 7.99716 66.8187 8.48603 67.0176 8.88707C67.2198 9.2848 67.4998 9.58807 67.8578 9.79688C68.2157 10.0024 68.6317 10.1051 69.1056 10.1051C69.4139 10.1051 69.6923 10.062 69.9409 9.97585C70.1928 9.88636 70.4099 9.75379 70.5922 9.57812C70.7744 9.39915 70.9153 9.17708 71.0147 8.91193L72.1483 9.23011C72.0289 9.61458 71.8284 9.95265 71.5467 10.2443C71.265 10.5327 70.917 10.758 70.5027 10.9205C70.0884 11.0795 69.6227 11.1591 69.1056 11.1591ZM74.0524 11V3.36364H75.1859V4.51705H75.2654C75.4047 4.1392 75.6565 3.83262 76.0211 3.5973C76.3857 3.36198 76.7967 3.24432 77.2541 3.24432C77.3403 3.24432 77.448 3.24597 77.5772 3.24929C77.7065 3.2526 77.8043 3.25758 77.8706 3.2642V4.45739C77.8308 4.44744 77.7396 4.43253 77.5971 4.41264C77.4579 4.38944 77.3104 4.37784 77.1547 4.37784C76.7834 4.37784 76.452 4.45573 76.1603 4.61151C75.872 4.76397 75.6433 4.97609 75.4743 5.24787C75.3085 5.51634 75.2257 5.82292 75.2257 6.16761V11H74.0524Z" fill="#4B5563"/>
</svg>
